<?xml version="1.0" encoding="UTF-8" standalone="no"?>
<svg
   width="16"
   height="16"
   viewBox="0 0 16 16"
   fill="currentColor"
   version="1.1"
   id="svg1"
   sodipodi:docname="error-dark_low.svg"
   inkscape:version="1.4 (e7c3feb100, 2024-10-09)"
   xmlns:inkscape="http://www.inkscape.org/namespaces/inkscape"
   xmlns:sodipodi="http://sodipodi.sourceforge.net/DTD/sodipodi-0.dtd"
   xmlns="http://www.w3.org/2000/svg"
   xmlns:svg="http://www.w3.org/2000/svg">
  <defs
     id="defs1" />
  <sodipodi:namedview
     id="namedview1"
     pagecolor="#ffffff"
     bordercolor="#000000"
     borderopacity="0.25"
     inkscape:showpageshadow="2"
     inkscape:pageopacity="0.0"
     inkscape:pagecheckerboard="0"
     inkscape:deskcolor="#d1d1d1"
     inkscape:zoom="45.254834"
     inkscape:cx="1.3921165"
     inkscape:cy="10.639747"
     inkscape:window-width="3838"
     inkscape:window-height="2128"
     inkscape:window-x="0"
     inkscape:window-y="0"
     inkscape:window-maximized="0"
     inkscape:current-layer="svg1" />
  <path
     fill-rule="evenodd"
     clip-rule="evenodd"
     d="m 8.6,1 c 1.6,0.1 3.1,0.9 4.2,2 1.3,1.4 2,3.1 2,5.1 0,1.6 -0.6,3.1 -1.6,4.4 -1,1.2 -2.4,2.1 -4,2.4 C 7.6,15.2 6,15 4.6,14.2 3.2,13.4 2.1,12.2 1.5,10.7 0.9,9.2 0.8,7.5 1.3,6 1.8,4.4 2.7,3.1 4.1,2.2 5.4,1.3 7,0.9 8.6,1 Z m 0.5,12.9 c 1.3,-0.3 2.5,-1 3.4,-2.1 C 13.3,10.7 13.8,9.4 13.7,8 13.7,6.4 13.1,4.8 12,3.7 11,2.7 9.8,2.1 8.4,2 7.1,1.9 5.7,2.2 4.6,3 3.5,3.8 2.7,4.9 2.3,6.3 1.9,7.6 1.9,9 2.5,10.3 c 0.6,1.3 1.5,2.3 2.7,3 1.2,0.7 2.6,0.9 3.9,0.6 z M 7.9,7.5 10.3,5 11,5.7 8.6,8.2 11,10.7 10.3,11.4 7.9,8.9 5.5,11.4 4.8,10.7 7.2,8.2 4.8,5.7 5.5,5 Z"
     id="path1"
     style="fill:#f14c4c;fill-opacity:1"
     sodipodi:nodetypes="scscsssccssccscscsssccccccccccccc" />
  <rect
     style="fill:#f14c4c;fill-opacity:1;stroke-width:0.793849"
     id="rect2"
     width="1.0011008"
     height="1.0154309"
     x="7.4020886"
     y="14.986927" />
</svg>
