<?xml version="1.0" encoding="UTF-8" standalone="no"?>
<svg
   width="16"
   height="16"
   viewBox="0 0 16 16"
   fill="currentColor"
   version="1.1"
   id="svg1"
   sodipodi:docname="template.svg"
   inkscape:version="1.4 (e7c3feb100, 2024-10-09)"
   xmlns:inkscape="http://www.inkscape.org/namespaces/inkscape"
   xmlns:sodipodi="http://sodipodi.sourceforge.net/DTD/sodipodi-0.dtd"
   xmlns="http://www.w3.org/2000/svg"
   xmlns:svg="http://www.w3.org/2000/svg">
  <defs
     id="defs1" />
  <sodipodi:namedview
     id="namedview1"
     pagecolor="#ffffff"
     bordercolor="#000000"
     borderopacity="0.25"
     inkscape:showpageshadow="2"
     inkscape:pageopacity="0.0"
     inkscape:pagecheckerboard="0"
     inkscape:deskcolor="#d1d1d1"
     inkscape:zoom="45.254834"
     inkscape:cx="4.0879611"
     inkscape:cy="9.9989318"
     inkscape:window-width="1918"
     inkscape:window-height="2128"
     inkscape:window-x="0"
     inkscape:window-y="0"
     inkscape:window-maximized="0"
     inkscape:current-layer="svg1" />
  <g
     inkscape:groupmode="layer"
     id="layer1"
     inkscape:label="Layer 1"
     transform="translate(0.41796875,-0.41796875)"
     style="display:inline">
    <path
       fill-rule="evenodd"
       clip-rule="evenodd"
       d="m 8.1781208,1.4160351 c 1.6,0.1 3.1000002,0.9 4.2000002,2 1.3,1.4 2,3.1 2,5.1 0,1.5999999 -0.6,3.0999999 -1.6,4.3999999 -1,1.2 -2.4,2.1 -4.0000002,2.4 -1.6,0.3 -3.2,0.1 -4.6,-0.7 -1.4,-0.8 -2.5,-2 -3.1,-3.5 C 0.47812082,9.6160351 0.37812082,7.9160351 0.87812082,6.4160351 c 0.49999998,-1.6 1.39999998,-2.9 2.79999998,-3.8 1.3,-0.9 2.9,-1.3 4.5,-1.2 z m 0.5,12.8999999 c 1.3,-0.3 2.5000002,-1 3.4000002,-2.1 0.8,-1.1 1.3,-2.3999999 1.2,-3.7999999 0,-1.6 -0.6,-3.2 -1.7,-4.3 -1,-1 -2.2000002,-1.6 -3.6000002,-1.7 -1.3,-0.1 -2.7,0.2 -3.8,1 -1.1,0.8 -1.9,1.9 -2.3,3.3 -0.4,1.3 -0.4,2.7 0.2,3.9999999 0.6,1.3 1.5,2.3 2.7,3 1.2,0.7 2.6,0.9 3.9,0.6 z m -1.2,-6.3999999 2.4,-2.5 0.7000002,0.7 -2.4000002,2.5 2.4000002,2.4999999 -0.7000002,0.7 -2.4,-2.4999999 -2.4,2.4999999 -0.7,-0.7 2.4,-2.4999999 -2.4,-2.5 0.7,-0.7 z"
       id="path1-2"
       style="fill:#f14c4c;fill-opacity:1"
       sodipodi:nodetypes="scscsssccssccscscsssccccccccccccc" />
    <rect
       style="fill:#f14c4c;fill-opacity:1;stroke-width:0.793849"
       id="rect2"
       width="1.0011008"
       height="1.0154309"
       x="6.9802079"
       y="15.402963" />
    <rect
       style="fill:#f14c4c;fill-opacity:1;stroke-width:0.794772"
       id="rect2-5"
       width="1.0011008"
       height="1.0178059"
       x="6.9815011"
       y="0.41599911" />
    <rect
       style="fill:#f14c4c;fill-opacity:1;stroke-width:1.07634"
       id="rect3-7"
       width="1.2847805"
       height="1"
       x="14.300779"
       y="8.1191607" />
  </g>
  <rect
     style="fill:#f14c4c;fill-opacity:1;stroke-width:1.3045"
     id="rect3"
     width="4.2542992"
     height="1"
     x="11.747958"
     y="7.4944758" />
  <path
     d="M 7.4005631,-0.00552427 7.4708751,1.187835 h 0.859375 l 0.070313,-1.19335927 z"
     style="fill:#f14c4c;fill-opacity:1;stroke-width:1.13768"
     id="path3"
     sodipodi:nodetypes="ccccc" />
  <path
     fill-rule="evenodd"
     clip-rule="evenodd"
     d="m 7.4605631,0.99447573 h 0.88 l 6.5399999,12.26000027 -0.44,0.74 H 1.3405631 l -0.43999999,-0.74 z m 0.44,1.27999997 -5.72,10.7200003 H 13.600563 Z m 0.625,9.7200003 v -1 h -1.25 v 1 z m -1.25,-2.0000003 v -4 h 1.25 v 4 z"
     id="path1"
     style="fill:#cca700;fill-opacity:1;stroke:none;stroke-opacity:1" />
  <rect
     style="fill:#f14c4c;fill-opacity:1;stroke-width:1.20947"
     id="rect1"
     width="1"
     height="2.0113776"
     x="7.4005632"
     y="13.986911"
     inkscape:transform-center-x="-0.3125"
     inkscape:transform-center-y="2.6399341" />
</svg>
